<?xml version="1.0"?>
<svg xmlns="http://www.w3.org/2000/svg" height="512px" viewBox="0 0 64 64" width="512px" class=""><g><g id="Books"><path d="m61 56v4h-44a14 14 0 0 1 0-28h44v4h-44a10 10 0 0 0 0 20z" fill="#9cdd05" data-original="#9CDD05" class="active-path" style="fill:#FF7956" data-old_color="#9cdd05"/><path d="m59 36v20h-42a10 10 0 0 1 0-20z" fill="#fee9ab" data-original="#FEE9AB" class="" style="fill:#F2F2F2" data-old_color="#fee9ab"/><path d="m47 4a14 14 0 1 1 0 28h-44v-4h44a10 10 0 0 0 0-20h-44v-4z" fill="#ff7956" data-original="#FF7956" class="" style="fill:#57BA98" data-old_color="#ff7956"/><path d="m54.07 10.93a10 10 0 0 1 -7.07 17.07h-42v-20h42a9.969 9.969 0 0 1 7.07 2.93z" fill="#fee9ab" data-original="#FEE9AB" class="" style="fill:#F2F2F2" data-old_color="#fee9ab"/><path d="m10 45h46v2h-46z" data-original="#000000" class="" style="fill:#182628" data-old_color="#000000"/><path d="m14 41h38v2h-38z" data-original="#000000" class="" style="fill:#182628" data-old_color="#000000"/><path d="m14 49h38v2h-38z" data-original="#000000" class="" style="fill:#182628" data-old_color="#000000"/><path d="m61 31h-6.548a14.989 14.989 0 0 0 -7.452-28h-44a1 1 0 0 0 -1 1v4a1 1 0 0 0 1 1h1v18h-1a1 1 0 0 0 -1 1v4a1 1 0 0 0 1 1h6.548a14.989 14.989 0 0 0 7.452 28h44a1 1 0 0 0 1-1v-4a1 1 0 0 0 -1-1h-1v-18h1a1 1 0 0 0 1-1v-4a1 1 0 0 0 -1-1zm-55-22h41a9 9 0 0 1 0 18h-41zm-2 22v-2h43a11 11 0 0 0 0-22h-43v-2h43a13 13 0 0 1 0 26zm54 24h-41a9 9 0 0 1 0-18h41zm2-20h-43a11 11 0 0 0 0 22h43v2h-43a13 13 0 0 1 0-26h43z" data-original="#000000" class="" style="fill:#182628" data-old_color="#000000"/><path d="m8 17h46v2h-46z" data-original="#000000" class="" style="fill:#182628" data-old_color="#000000"/><path d="m12 13h38v2h-38z" data-original="#000000" class="" style="fill:#182628" data-old_color="#000000"/><path d="m12 21h38v2h-38z" data-original="#000000" class="" style="fill:#182628" data-old_color="#000000"/></g></g> </svg>
