<?xml version="1.0" encoding="iso-8859-1"?>
<!-- Generator: Adobe Illustrator 19.0.0, SVG Export Plug-In . SVG Version: 6.00 Build 0)  -->
<svg version="1.1" id="Layer_1" xmlns="http://www.w3.org/2000/svg" xmlns:xlink="http://www.w3.org/1999/xlink" x="0px" y="0px"
	 viewBox="0 0 512 512" style="enable-background:new 0 0 512 512;" xml:space="preserve">
<path style="fill:#FFE477;" d="M488.727,186.182h-23.273H256H46.545H23.273C10.42,186.182,0,175.762,0,162.909v325.818
	C0,501.582,10.42,512,23.273,512H256h232.727C501.58,512,512,501.582,512,488.727V162.909
	C512,175.762,501.58,186.182,488.727,186.182z"/>
<path style="fill:#6E76E5;" d="M488.727,46.545H356.848h-23.273h-23.273H256h-54.303h-23.273h-23.273H23.273
	C10.42,46.545,0,56.965,0,69.818v93.091c0,12.853,10.42,23.273,23.273,23.273h23.273H256h209.455h23.273
	c12.853,0,23.273-10.42,23.273-23.273V69.818C512,56.965,501.58,46.545,488.727,46.545z"/>
<path style="fill:#A78966;" d="M356.848,46.545V23.273C356.848,10.42,346.428,0,333.576,0s-23.273,10.42-23.273,23.273v23.273
	h23.273H356.848z"/>
<path style="fill:#806749;" d="M201.697,46.545V23.273C201.697,10.42,191.277,0,178.424,0c-12.853,0-23.273,10.42-23.273,23.273
	v23.273h23.273H201.697z"/>
<path style="fill:#EEBF00;" d="M46.545,186.182H23.273C10.42,186.182,0,175.762,0,162.909v325.818C0,501.582,10.42,512,23.273,512
	H256V186.182H46.545z"/>
<path style="fill:#424EDE;" d="M23.273,186.182h23.273H256V46.545h-54.303h-23.273h-23.273H23.273C10.42,46.545,0,56.965,0,69.818
	v93.091C0,175.762,10.42,186.182,23.273,186.182z"/>
<g>
</g>
<g>
</g>
<g>
</g>
<g>
</g>
<g>
</g>
<g>
</g>
<g>
</g>
<g>
</g>
<g>
</g>
<g>
</g>
<g>
</g>
<g>
</g>
<g>
</g>
<g>
</g>
<g>
</g>
</svg>
