<?xml version="1.0"?>
<svg xmlns="http://www.w3.org/2000/svg" xmlns:xlink="http://www.w3.org/1999/xlink" version="1.1" id="Capa_1" x="0px" y="0px" viewBox="0 0 511.974 511.974" style="enable-background:new 0 0 511.974 511.974;" xml:space="preserve" width="512px" height="512px" class=""><g><g transform="translate(0 -1)">
	<path style="fill:#FDD7AD" d="M204.781,394.75v24.405h-82.603L60.482,357.46c-7.044-6.978-12.743-15.193-16.811-24.235   l-33.451-73.557c-1.132-2.432-1.715-5.083-1.707-7.765c0.025-10.311,8.377-18.663,18.688-18.688   c7.485-0.028,14.251,4.45,17.152,11.349l19.115,44.544c1.124,2.69,2.406,5.312,3.84,7.851l3.243-1.707v-0.085   c11.198-11.24,29.13-12.055,41.301-1.877c15.245,13.791,32.696,24.925,51.627,32.939c9.719,3.49,18.224,9.712,24.491,17.92   C199.124,358.635,205.048,376.469,204.781,394.75z" data-original="#FDD7AD" class="" data-old_color="#FDD7AD"/>
	<path style="fill:#285680;" d="M221.848,435.369v61.44c-0.261,4.465-4.065,7.89-8.533,7.68h-93.867   c-4.468,0.21-8.273-3.215-8.533-7.68v-61.44c0.261-4.465,4.065-7.89,8.533-7.68h93.867   C217.782,427.48,221.587,430.904,221.848,435.369z" data-original="#285680" class=""/>
	<path style="fill:#90BAE1;" d="M196.248,470.356h-8.533c-4.713,0-8.533-3.821-8.533-8.533c0-4.713,3.821-8.533,8.533-8.533h8.533   c4.713,0,8.533,3.821,8.533,8.533C204.781,466.535,200.96,470.356,196.248,470.356z" data-original="#90BAE1"/>
	<path style="fill:#FDD7AD" d="M503.448,251.902c0.008,2.682-0.575,5.334-1.707,7.765l-33.451,73.557   c-4.068,9.042-9.767,17.257-16.811,24.235l-61.696,61.696h-82.603V394.75c-0.267-18.281,5.657-36.115,16.811-50.603   c6.267-8.208,14.771-14.43,24.491-17.92c18.931-8.013,36.382-19.148,51.627-32.939c12.171-10.178,30.103-9.363,41.301,1.877v0.085   l3.243,1.707c1.434-2.539,2.716-5.16,3.84-7.851l19.115-44.544c2.901-6.9,9.667-11.377,17.152-11.349   C495.07,233.24,503.423,241.592,503.448,251.902z" data-original="#FDD7AD" class="" data-old_color="#FDD7AD"/>
	<path style="fill:#285680;" d="M401.048,435.369v61.44c-0.261,4.465-4.065,7.89-8.533,7.68h-93.867   c-4.468,0.21-8.273-3.215-8.533-7.68v-61.44c0.261-4.465,4.065-7.89,8.533-7.68h93.867   C396.982,427.48,400.787,430.904,401.048,435.369z" data-original="#285680" class=""/>
	<path style="fill:#90BAE1;" d="M324.248,470.356h-8.533c-4.713,0-8.533-3.821-8.533-8.533c0-4.713,3.821-8.533,8.533-8.533h8.533   c4.713,0,8.533,3.821,8.533,8.533C332.781,466.535,328.96,470.356,324.248,470.356z" data-original="#90BAE1"/>
	<path style="fill:#4482C3;" d="M307.352,18.345C242.94-4.534,171.16,17.914,131.259,73.414s-38.315,130.692,3.89,184.461v0.085   c8.787,11.249,19.131,21.191,30.72,29.525c26.161,19.089,57.727,29.342,90.112,29.269c4.352,0,8.704-0.171,13.056-0.597   c66.98-5.625,122.478-54.238,136.875-119.893c2.479-10.861,3.71-21.969,3.669-33.109C409.571,98.119,368.631,40.128,307.352,18.345   z" data-original="#4482C3" class=""/>
	<g>
		<path style="fill:#24AE5F;" d="M198.381,67.668c-5.632,11.179-0.939,24.576,2.901,36.437c1.721,3.946,2.169,8.331,1.28,12.544    c-1.377,3.245-3.584,6.071-6.4,8.192c-7.424,6.827-14.848,13.568-22.272,20.309c-5.684,4.568-10.361,10.263-13.739,16.725    c-5.888,13.483,0.171,29.355-2.389,43.861c-3.413,18.859-20.736,33.365-22.613,52.139    c-30.002-38.215-40.144-88.376-27.346-135.245s47.025-84.914,92.285-102.579c9.942,9.4,12.355,24.295,5.888,36.352    C203.586,60.244,200.429,63.572,198.381,67.668z" data-original="#24AE5F" class=""/>
		<path style="fill:#24AE5F;" d="M409.581,163.156c0.041,11.14-1.191,22.248-3.669,33.109c-6.609,1.531-13.55-0.252-18.603-4.779    c-8.021-6.656-14.677-16.469-26.539-14.933c-6.73,1.13-12.609,5.195-16.043,11.093c-10.069,16.213-4.864,36.779-13.312,53.077    c-4.897,8.088-11.368,15.11-19.029,20.651l-0.256,0.256c-4.504,3.598-10.748,4.082-15.753,1.222    c-5.005-2.86-7.758-8.485-6.945-14.192c1.77-14.5-2.01-29.132-10.581-40.96c-6.912-9.301-17.152-17.749-17.067-29.269    c0.171-15.531,18.944-24.917,31.317-30.293c6.74-2.751,12.463-7.52,16.384-13.653c11.093-18.517-6.059-32.939-14.763-48.469    c-11.996-22.755-6.767-50.773,12.629-67.669C368.631,40.128,409.571,98.119,409.581,163.156z" data-original="#24AE5F" class=""/>
		<path style="fill:#24AE5F;" d="M269.037,316.158c-4.352,0.427-8.704,0.597-13.056,0.597c-32.385,0.072-63.951-10.18-90.112-29.269    c4.181-5.035,7.339-10.923,11.435-16.043c4.317-6.242,11.44-9.947,19.029-9.899c9.216,1.024,15.445,10.411,24.32,13.141    c7.129,0.983,14.353,1.069,21.504,0.256c1.445,0.007,2.872,0.327,4.181,0.939c1.347,0.765,2.512,1.813,3.413,3.072    C258.37,290.046,260.248,305.321,269.037,316.158z" data-original="#24AE5F" class=""/>
	</g>
	<g>
		<path style="fill:#FDD7AD" d="M166.164,318.102c-17.97-7.551-34.498-18.156-48.85-31.346    c-13.31-10.989-32.237-11.992-46.633-2.471l-18.463-43.083c-3.853-9.004-12.247-15.242-21.98-16.334s-19.3,3.132-25.052,11.058    c-5.752,7.926-6.799,18.333-2.743,27.246l33.442,73.571c4.515,9.957,10.792,19.017,18.529,26.742l61.704,61.705    c1.6,1.6,3.77,2.5,6.033,2.5h82.629c4.713,0,8.533-3.821,8.533-8.533v-24.417c0.259-20.209-6.334-39.909-18.704-55.892    C187.355,329.305,177.467,322.094,166.164,318.102z M196.248,410.622h-70.562l-59.204-59.204    c-6.287-6.28-11.389-13.642-15.063-21.733l-33.442-73.571c-1.427-3.14-1.161-6.789,0.706-9.688c1.867-2.9,5.078-4.652,8.527-4.653    c4.059-0.003,7.727,2.417,9.321,6.15l19.083,44.525c5.075,11.874,12.381,22.665,21.521,31.787l38.983,38.983    c2.155,2.155,5.297,2.997,8.242,2.208c2.944-0.789,5.244-3.089,6.033-6.033c0.789-2.944-0.053-6.086-2.208-8.242l-38.983-38.983    c-3.917-3.914-7.44-8.204-10.517-12.809c8.188-6.321,19.661-6.133,27.638,0.454c15.953,14.64,34.391,26.316,54.446,34.479    c8.171,2.971,15.3,8.257,20.517,15.212c9.95,12.957,15.223,28.899,14.963,45.234V410.622z" data-original="#F09372" class="active-path" data-old_color="#F09372"/>
		<path style="fill:#FDD7AD" d="M507.627,237.181c-5.448-8.459-15.12-13.221-25.147-12.38c-10.027,0.841-18.77,7.148-22.733,16.396    l-18.417,42.967c-14.443-9.477-33.378-8.425-46.683,2.592c-14.353,13.191-30.882,23.796-48.854,31.346    c-11.301,3.994-21.187,11.205-28.442,20.746c-12.37,15.982-18.963,35.683-18.704,55.892v24.417c0,4.713,3.82,8.533,8.533,8.533    h82.629c2.263-0.001,4.433-0.9,6.033-2.5l61.705-61.705c7.737-7.725,14.014-16.784,18.529-26.742l33.442-73.571    C513.369,254.754,512.655,244.953,507.627,237.181z M493.985,256.114l-33.442,73.571c-3.673,8.091-8.776,15.453-15.063,21.733    l-59.204,59.204h-70.562v-15.883c-0.261-16.334,5.013-32.276,14.963-45.233c5.216-6.954,12.343-12.24,20.513-15.212    c20.057-8.162,38.496-19.838,54.45-34.479c7.973-6.625,19.47-6.846,27.692-0.533c-3.09,4.634-6.631,8.951-10.571,12.887    l-38.983,38.983c-2.156,2.156-2.997,5.297-2.208,8.242c0.789,2.944,3.089,5.244,6.033,6.033c2.944,0.789,6.086-0.053,8.242-2.208    l38.983-38.983c9.14-9.122,16.446-19.913,21.521-31.787l19.088-44.529c1.593-3.731,5.26-6.15,9.317-6.146    c3.448,0.001,6.66,1.754,8.527,4.653C495.146,249.325,495.412,252.975,493.985,256.114z" data-original="#F09372" class="active-path" data-old_color="#F09372"/>
	</g>
</g></g> </svg>
